PathFileType	4	(X/Y/Z)	Run_200 02
DataRate	CameraRate	NumFrames	NumMarkers	Units	OrigDataRate	OrigDataStartFrame	OrigNumFrames
100	100	4	42	mm	100	141	128
Frame#	Time	LPSI			RPSI			RTH1			RTH2			RTH3			LTH1			LTH2			LTH3			RTB1			RTB2			RTB3			LTB1			LTB2			LTB3			RCAL			RTOE			RMT5			LCAL			LTOE			LMT5			LACR			RACR			CLAV			C7			RUA1			RUA2			RUA3			RLEL			RMEL			LUA1			LUA2			LUA3			LLEL			LMEL			RFAsuperior			RFAradius			RFAulna			LFAsuperior			LFAradius			LFAulna			RASI			LASI		
		X1	Y1	Z1	X2	Y2	Z2	X3	Y3	Z3	X4	Y4	Z4	X5	Y5	Z5	X6	Y6	Z6	X7	Y7	Z7	X8	Y8	Z8	X9	Y9	Z9	X10	Y10	Z10	X11	Y11	Z11	X12	Y12	Z12	X13	Y13	Z13	X14	Y14	Z14	X15	Y15	Z15	X16	Y16	Z16	X17	Y17	Z17	X18	Y18	Z18	X19	Y19	Z19	X20	Y20	Z20	X21	Y21	Z21	X22	Y22	Z22	X23	Y23	Z23	X24	Y24	Z24	X25	Y25	Z25	X26	Y26	Z26	X27	Y27	Z27	X28	Y28	Z28	X29	Y29	Z29	X30	Y30	Z30	X31	Y31	Z31	X32	Y32	Z32	X33	Y33	Z33	X34	Y34	Z34	X35	Y35	Z35	X36	Y36	Z36	X37	Y37	Z37	X38	Y38	Z38	X39	Y39	Z39	X40	Y40	Z40	X41	Y41	Z41	X42	Y42	Z42	

141	  1.410000	621.793089	1109.845262	-526.953944	618.165505	1108.284664	-443.096328	764.575535	909.558571	-293.255302	860.086316	797.014274	-307.156414	818.262694	679.253270	-308.446215	719.717462	912.017502	-663.488872	767.683879	787.873849	-641.496674	661.208832	666.597347	-633.531169	859.852834	433.073383	-352.534001	778.836065	357.686093	-300.541533	773.627790	253.723480	-357.164694	646.177471	430.283312	-569.563764	559.267540	385.398316	-632.348064	540.987726	252.770810	-560.454202	610.182262	161.363629	-377.309232	834.189673	 97.738416	-365.490152	793.847743	 71.330297	-283.132688	360.475311	177.931820	-536.331623	559.732226	 67.084215	-555.754442	512.925721	 53.818806	-633.279624	810.017388	1556.525053	-638.246302	740.682702	1551.727912	-309.452902	847.112120	1509.286446	-436.660492	721.138437	1588.829072	-497.794659	646.810351	1469.193356	-241.470065	565.386118	1418.631946	-281.559293	574.896149	1380.235779	-211.177926	530.544203	1294.489187	-187.267366	500.840710	1283.305901	-265.297142	791.278476	1462.595487	-747.018794	727.831568	1383.275594	-763.063750	790.168969	1356.521347	-806.444178	804.230083	1275.711245	-844.457080	741.405007	1233.899870	-815.402208	585.327520	1233.102254	-194.474121	770.370519	1183.284758	-270.017303	728.328049	1125.343421	-261.826669	883.818404	1247.398534	-752.242298	929.922394	1289.673280	-608.535432	933.498009	1221.237404	-619.096585	795.714578	1040.303384	-352.324574	803.210995	1043.771857	-605.372894	
142	  1.420000	623.868795	1115.260962	-526.877356	620.201901	1113.920440	-443.252978	764.337843	915.940231	-292.379112	857.947550	801.794403	-306.401398	813.919206	684.108541	-307.362455	720.168708	916.794834	-662.810314	765.390691	791.912204	-641.061369	655.938960	672.823024	-633.352104	865.296813	436.478089	-350.356483	790.597658	355.155434	-298.601721	794.590234	250.791063	-355.387533	637.244932	436.701187	-570.594871	549.514380	393.132958	-633.222194	531.444109	259.597620	-562.764149	639.599421	145.338649	-376.168002	867.765436	 99.615815	-364.592000	829.489381	 69.223031	-282.457986	351.441059	190.156615	-537.742441	541.520155	 67.076182	-555.288208	494.817839	 55.112131	-632.805575	812.053407	1562.416652	-633.979268	739.784439	1557.037863	-308.000577	846.930142	1515.360129	-434.027130	722.175169	1594.531304	-496.038479	644.662151	1476.303199	-240.692147	563.828831	1425.957810	-282.394477	571.442794	1388.251027	-211.215573	525.838189	1302.739031	-187.441644	496.978676	1291.464695	-265.727008	795.048914	1469.134734	-744.098260	731.320799	1389.874506	-761.218460	793.859139	1362.871532	-803.894132	808.919272	1281.984260	-842.152068	746.065139	1239.926417	-812.783242	580.240538	1241.132624	-193.429295	766.288042	1190.176509	-266.428482	723.808036	1132.275570	-258.204987	887.529070	1255.611176	-748.504689	932.009851	1299.829529	-605.106366	936.212006	1231.418643	-614.254260	796.127400	1046.313300	-350.711682	804.082040	1049.027291	-603.737412	
143	  1.430000	626.046403	1120.246205	-526.717513	621.937313	1119.034826	-442.897992	763.900569	921.422492	-291.523814	855.140863	805.306849	-305.378453	808.442882	687.694604	-306.375764	720.608553	921.322954	-662.174355	763.518812	795.636723	-641.021809	651.664141	678.570853	-633.197702	869.849238	439.900169	-348.474808	801.918298	353.006714	-296.708847	814.995112	248.905328	-353.195424	629.813567	442.595615	-571.685893	541.262003	400.429598	-634.226659	522.989119	266.072543	-564.973165	669.407031	131.580918	-374.779367	900.113418	102.892257	-363.668027	864.415254	 68.422707	-282.179844	343.870683	202.742200	-539.163699	524.133891	 67.334608	-555.033870	477.103076	 56.944985	-632.372129	813.904985	1567.850310	-630.354772	739.030457	1561.668995	-306.550490	846.778248	1520.905153	-431.463877	723.165330	1599.632878	-494.172640	642.713902	1482.616846	-239.931044	562.467484	1432.547056	-283.133303	568.244374	1395.268150	-211.467050	521.659438	1310.061746	-187.826355	493.856507	1298.510363	-266.442474	798.279661	1475.109963	-741.111926	734.208493	1395.862531	-758.990534	796.829259	1368.747801	-801.262777	812.896171	1287.886898	-839.958932	749.913824	1245.618452	-810.018674	575.815437	1248.346558	-192.515441	762.937345	1196.295628	-262.632789	719.869466	1138.384859	-254.607230	890.509645	1262.951350	-744.806153	933.571894	1308.748995	-601.639105	938.037642	1240.486546	-609.334609	796.776405	1051.357119	-348.632262	805.188995	1053.317818	-601.636646	
144	  1.440000	628.430544	1124.751876	-526.626963	623.490825	1123.585546	-442.235224	763.556670	925.702263	-290.861087	851.773739	807.477006	-304.056579	802.055222	689.894985	-305.716956	721.127921	925.426149	-661.408383	762.293709	798.875845	-641.227243	648.575321	683.572856	-632.935143	873.752229	443.325520	-346.957413	812.536883	351.543458	-295.012458	834.414611	248.293973	-350.751364	623.829113	447.619585	-572.630642	534.559318	407.034307	-635.273822	515.418198	272.082582	-567.038199	698.507289	120.802540	-373.375778	930.358066	107.332163	-362.313323	897.362412	 68.800753	-281.829314	337.446777	215.539732	-540.682240	507.531607	 67.904308	-555.012723	459.778740	 59.485496	-632.035794	815.575891	1572.772250	-627.558083	738.473756	1565.489749	-305.104469	846.655960	1525.673927	-428.995123	724.087794	1603.978037	-492.216162	640.952543	1488.046200	-239.223576	561.340056	1438.064737	-283.883057	565.388512	1401.242336	-211.771992	517.988126	1316.324587	-188.282592	491.739255	1304.259815	-267.540774	800.901648	1480.409500	-738.292026	736.573123	1401.106206	-756.408126	799.212213	1374.092172	-798.665342	815.927128	1293.179950	-837.588017	753.106210	1250.733048	-807.338121	572.090221	1254.546453	-191.746619	760.296649	1201.561313	-258.569413	716.764224	1143.713590	-251.036629	892.820386	1269.314060	-741.180969	934.407898	1316.267451	-598.000992	939.103083	1248.185055	-604.483188	797.744308	1055.448692	-346.900728	806.614388	1056.656592	-599.884810	
